<mxfile host="app.diagrams.net" modified="2023-08-30T14:10:48.349Z" agent="Mozilla/5.0 (Macintosh; Intel Mac OS X 10_15_7) AppleWebKit/537.36 (KHTML, like Gecko) Chrome/116.0.0.0 Safari/537.36" version="21.6.8" etag="fBAHE_pWpdIh52cxVouU" type="github">
  <diagram name="Page-1" id="fFo_sYuhBYsaJBWzZfC0">
    <mxGraphModel>
      <root>
        <mxCell id="0" />
        <mxCell id="1" parent="0" />
      </root>
    </mxGraphModel>
  </diagram>
</mxfile>
